<svg id="SvgjsSvg1001" width="288" height="288" xmlns="http://www.w3.org/2000/svg" version="1.1" xmlns:xlink="http://www.w3.org/1999/xlink" xmlns:svgjs="http://svgjs.com/svgjs"><defs id="SvgjsDefs1002"></defs><g id="SvgjsG1008" transform="matrix(0.9167,0,0,0.9167,11.9952003177643,11.995200000000011)"><svg xmlns="http://www.w3.org/2000/svg" enable-background="new 0 0 60 60" viewBox="0 0 60 60" width="288" height="288"><path d="M29.9997559,33.9487305c-13.3325195,0-24.4282227-10.3764648-24.4282227-14.2915039
			c0-0.6289063,0.2382813-1.1713867,0.6884766-1.5693359c1.3710938-1.2114258,4.4848633-0.8242188,9.6469727-0.1831055
			c1.0742188,0.1337891,2.222168,0.2763672,3.4321289,0.4130859c0.5488281,0.0620117,0.9433594,0.5571289,0.8813477,1.105957
			s-0.5610352,0.9448242-1.105957,0.8813477c-1.2177734-0.1376953-2.3730469-0.28125-3.4541016-0.4155273
			c-3.3789063-0.4208984-7.5825195-0.9438477-8.0854492-0.2939453c-0.003418,2.5493164,9.8032227,12.3530273,22.4248047,12.3530273
			c12.6220703,0,22.4287109-9.8037109,22.4287109-12.2915039c-0.5063477-0.7099609-4.7070313-0.1875-8.0849609,0.2324219
			c-1.0742188,0.1333008-2.2216797,0.2763672-3.4311523,0.4130859c-0.546875,0.0654297-1.0439453-0.3325195-1.105957-0.8813477
			c-0.0620117-0.5483398,0.3325195-1.0439453,0.8813477-1.105957c1.2011719-0.1362305,2.3417969-0.277832,3.4091797-0.4106445
			c5.1591797-0.6411133,8.2719727-1.0283203,9.6430664,0.1826172c0.4501953,0.3979492,0.6884766,0.940918,0.6884766,1.5698242
			C54.4284668,23.5722656,43.3327637,33.9487305,29.9997559,33.9487305z" fill="#9c27b0" class="color000 svgShape"></path><path d="M30.0515137,26.6235352c-5.7666016,0-10.9931641-2.2739258-11.2128906-2.3706055
			c-0.362793-0.159668-0.5966797-0.5185547-0.5966797-0.9150391V10.1665039C18.2419434,7.3178711,20.5598145,5,23.4084473,5
			c0.9853516,0,1.9453125,0.2797852,2.7763672,0.8095703l2.1171875,1.3491211c1.0341797,0.6582031,2.3691406,0.6582031,3.4033203,0
			l2.1181641-1.3491211C34.6540527,5.2797852,35.6140137,5,36.5993652,5c2.8486328,0,5.1660156,2.3178711,5.1660156,5.1665039
			v13.1713867c0,0.40625-0.2460938,0.7724609-0.6220703,0.9257813
			C40.9074707,24.3598633,35.3024902,26.6235352,30.0515137,26.6235352z M20.2419434,22.6630859
			c1.4887695,0.5708008,5.5498047,1.9604492,9.8095703,1.9604492c3.8959961,0,8.1489258-1.4052734,9.7138672-1.9755859V10.1665039
			C39.7653809,8.4204102,38.3449707,7,36.5993652,7c-0.6035156,0-1.1918945,0.1713867-1.7011719,0.4960938L32.779541,8.8452148
			c-1.6855469,1.0742188-3.8652344,1.0751953-5.5517578,0l-2.1176758-1.3491211C24.6003418,7.1713867,24.0119629,7,23.4084473,7
			c-1.7460938,0-3.1665039,1.4204102-3.1665039,3.1665039V22.6630859z M40.7653809,23.3378906h0.0097656H40.7653809z" fill="#9c27b0" class="color000 svgShape"></path><path d="M30.0515137 22.7270508c-5.5517578 0-10.9716797-2.2680664-11.199707-2.3647461-.5083008-.215332-.7456055-.8017578-.5307617-1.3105469.215332-.5073242.8017578-.7460938 1.3105469-.53125.0522461.0219727 5.2832031 2.206543 10.4199219 2.206543 5.0859375 0 10.2700195-2.1835938 10.3217773-2.2055664.5083008-.2167969 1.0957031.0200195 1.3120117.527832.2163086.5083008-.0200195 1.0957031-.527832 1.3120117C40.9304199 20.4580078 35.541748 22.7270508 30.0515137 22.7270508zM30.1623535 54.0478516c-.1411133 0-.2817383-.0297852-.4130859-.0893555C12.3625488 46.0717773 14.9611816 29.1035156 14.989502 28.9331055c.0898438-.5439453.6000977-.9140625 1.1484375-.8222656.5444336.0893555.9130859.6035156.824707 1.1479492-.1025391.6293945-2.3085938 15.3774414 13.199707 22.6875 15.5087891-7.3100586 13.3022461-22.0576172 13.199707-22.6875-.0883789-.5444336.2802734-1.0585938.824707-1.1479492.5507813-.090332 1.0585938.2783203 1.1484375.8222656.0283203.1704102 2.6274414 17.1386719-14.7597656 25.0253906C30.4440918 54.0180664 30.3034668 54.0478516 30.1623535 54.0478516z" fill="#9c27b0" class="color000 svgShape"></path><path d="M42.670166 55c-.2583008 0-.5161133-.0991211-.7119141-.2973633-.3876953-.3935547-.3837891-1.0263672.0092773-1.4145508l5.5039063-5.4311523h-3.9438477c-.3789063 0-.7250977-.2138672-.8945313-.5527344s-.1328125-.7441406.0947266-1.0473633l4.9711914-6.628418c.3242188-4.6547852-3.78125-7.9516602-3.8232422-7.9853516-.4331055-.3413086-.5083008-.9697266-.1679688-1.4033203.3417969-.4331055.9672852-.5107422 1.4018555-.1704102.2114258.1655273 5.1777344 4.1235352 4.5551758 10.0356445-.019043.1791992-.0864258.3505859-.1948242.4951172l-3.9423828 5.2568359h4.3808594c.4057617 0 .7709961.2451172.925293.6206055.1538086.375.065918.8061523-.2226563 1.0913086l-7.2382813 7.1430664C43.1779785 54.9038086 42.9240723 55 42.670166 55zM48.670166 40h.0097656H48.670166zM17.654541 55c-.2539063 0-.5073242-.0957031-.7026367-.2880859L9.713623 47.5688477c-.2885742-.2851563-.3764648-.7163086-.2226563-1.0913086.1542969-.3754883.5195313-.6206055.925293-.6206055h4.3813477l-3.9428711-5.2568359c-.1083984-.1445313-.1757813-.315918-.1948242-.4956055-.6220703-5.9116211 4.34375-9.8696289 4.5551758-10.0351563.4345703-.3398438 1.0634766-.2631836 1.4038086.1713867.3398438.4345703.2636719 1.0625-.1704102 1.402832-.0625.0498047-4.1455078 3.3417969-3.8227539 7.9848633l4.9716797 6.628418c.2275391.3032227.2641602.7084961.0947266 1.0473633s-.515625.5527344-.8945313.5527344h-3.9443359l5.5039063 5.4311523c.3930664.3881836.3969727 1.0209961.0092773 1.4145508C18.1706543 54.9008789 17.9128418 55 17.654541 55zM36.1638184 38.2382813c-2.7958984 0-5.0708008-2.2749023-5.0708008-5.0708008 0-.1376953.0053711-.2744141.0166016-.4101563.0444336-.550293.519043-.9648438 1.0771484-.9160156.550293.0444336.9604492.5263672.9160156 1.0771484-.0063477.0820313-.0097656.1650391-.0097656.2490234 0 1.6933594 1.3774414 3.0708008 3.0708008 3.0708008 1.6928711 0 3.0703125-1.3774414 3.0703125-3.0708008 0-.546875-.1450195-1.0834961-.4199219-1.5517578-.2797852-.4765625-.1201172-1.0893555.355957-1.3686523.4755859-.2802734 1.0893555-.1201172 1.3686523.355957.4550781.7749023.6953125 1.6616211.6953125 2.5644531C41.2341309 35.9633789 38.9597168 38.2382813 36.1638184 38.2382813zM24.1599121 38.234375c-2.7949219 0-5.0683594-2.2739258-5.0683594-5.0688477 0-.8457031.2045898-1.6606445.6074219-2.421875.2578125-.487793.8632813-.675293 1.3515625-.4160156.4882813.2583008.6743164.8632813.4160156 1.3515625-.2490234.4702148-.375.9702148-.375 1.4863281 0 1.6923828 1.3764648 3.0688477 3.0683594 3.0688477s3.0683594-1.3764648 3.0683594-3.0688477c0-.0522461.0024414-.1113281-.0039063-.1635742-.0673828-.5483398.3222656-1.0473633.8706055-1.1147461.5493164-.0595703 1.0473633.3222656 1.1147461.8706055.0161133.1303711.0185547.2773438.0185547.4077148C29.2282715 35.9604492 26.954834 38.234375 24.1599121 38.234375z" fill="#9c27b0" class="color000 svgShape"></path></svg></g></svg>